<svg xmlns="http://www.w3.org/2000/svg" width="102" height="24" viewBox="0 0 102 24" fill="none"><path d="M57.5498 5.57429C57.5498 5.12174 57.1829 4.75488 56.7304 4.75488L48.3828 4.75488C47.9302 4.75488 47.5634 5.12175 47.5634 5.57429L47.5634 9.12506C47.5634 9.57761 47.9302 9.94447 48.3828 9.94447L56.7304 9.94447C57.1829 9.94447 57.5498 9.57761 57.5498 9.12506L57.5498 5.57429Z" fill="#EB73DA"></path><path d="M29.3033 20.0701C29.3033 20.8052 29.1571 21.4345 28.8645 21.9578C28.569 22.4812 28.1582 22.8826 27.6322 23.1619C27.1032 23.4413 26.49 23.5809 25.7925 23.5809C25.0951 23.5809 24.4834 23.4413 23.9573 23.1619C23.4284 22.8826 23.0176 22.4812 22.725 21.9578C22.4295 21.4345 22.2817 20.8052 22.2817 20.0701C22.2817 19.335 22.4295 18.7058 22.725 18.1824C23.0176 17.659 23.4284 17.2577 23.9573 16.9783C24.4834 16.699 25.0951 16.5593 25.7925 16.5593C26.49 16.5593 27.1032 16.699 27.6322 16.9783C28.1582 17.2577 28.569 17.659 28.8645 18.1824C29.1571 18.7058 29.3033 19.335 29.3033 20.0701Z" fill="#8753EA"></path><path d="M47.6893 3.31002C48.0268 3.14276 48.4071 3.04873 48.8093 3.04873L53.1982 3.04873V0H47.6893V3.31002Z" fill="#100A2C"></path><path d="M54.5938 22.5084H59.1478V17.5504H55.8425C54.8876 17.5504 54.202 17.4035 53.7858 17.1097C53.3941 16.7914 53.1982 16.167 53.1982 15.2366V11.6505L48.8093 11.6505C48.4071 11.6505 48.0268 11.5564 47.6893 11.3892V15.861C47.6893 18.1869 48.3014 19.8763 49.5256 20.9291C50.7498 21.982 52.4392 22.5084 54.5938 22.5084Z" fill="#100A2C"></path><path d="M37.8878 22.5084H43.3967V11.0499C43.3967 9.67878 43.1274 8.44234 42.5887 7.34056C42.0501 6.23879 41.2299 5.36961 40.1281 4.73303C39.0263 4.07196 37.643 3.74143 35.9781 3.74143C34.3621 3.74143 33.0277 4.03523 31.9749 4.62285C30.9466 5.18598 30.1509 5.93274 29.5877 6.86313C29.0246 7.76903 28.6574 8.73615 28.486 9.76447H28.1554V4.10868H23.0505V15.4369C23.0666 15.4282 23.0827 15.4195 23.0989 15.4109C23.9099 14.9807 24.8045 14.7936 25.7325 14.7936C26.6614 14.7936 27.5565 14.9811 28.3688 15.41L28.3705 15.411L28.3723 15.4119C28.4357 15.4455 28.4981 15.4804 28.5594 15.5165V13.2167C28.5594 11.6497 28.9022 10.5112 29.5877 9.8012C30.2978 9.06668 31.5342 8.69942 33.2971 8.69942C34.9864 8.69942 36.1739 9.02996 36.8595 9.69102C37.545 10.3276 37.8878 11.3927 37.8878 12.8862V22.5084Z" fill="#100A2C"></path><path d="M67.5572 22.5084H62.0483V4.10868H67.1532V8.99323H67.4837C67.6551 7.98939 67.9857 7.09573 68.4753 6.31224C68.9895 5.50427 69.6751 4.87993 70.532 4.43922C71.3889 3.97402 72.4295 3.74143 73.6537 3.74143C75.0493 3.74143 76.1633 4.03523 76.9958 4.62285C77.8527 5.18598 78.477 5.95722 78.8688 6.93658C79.2605 7.89145 79.4564 8.96875 79.4564 10.1685V11.7449H73.9475V11.307C73.9475 10.2786 73.7149 9.54412 73.2497 9.10341C72.809 8.63821 72.0255 8.40562 70.8993 8.40562C69.6751 8.40562 68.8059 8.68718 68.2917 9.25031C67.802 9.81344 67.5572 10.6826 67.5572 11.8579V22.5084Z" fill="#100A2C"></path><path fill-rule="evenodd" clip-rule="evenodd" d="M4.92127 21.8473C6.48824 22.5328 8.28782 22.8756 10.32 22.8756C12.2787 22.8756 13.9803 22.5941 15.4249 22.0309C16.8939 21.4433 18.0324 20.6353 18.8404 19.607C19.5047 18.7615 19.896 17.8166 20.0141 16.7724H14.4314C14.2839 17.2106 13.9907 17.5678 13.5519 17.8442C12.8908 18.2604 11.7523 18.4685 10.1364 18.4685C8.25109 18.4685 6.94119 18.1135 6.20668 17.4035C5.58934 16.7861 5.2016 15.6661 5.05107 14.4287H20.0891C20.138 14.1104 20.1748 13.8166 20.1992 13.5472C20.2237 13.2779 20.236 12.9841 20.236 12.6658C20.236 10.7561 19.8197 9.14013 18.9873 7.818C18.1548 6.47139 16.9796 5.4553 15.4616 4.76975C13.9681 4.0842 12.2175 3.74143 10.2098 3.74143C8.17764 3.74143 6.3903 4.13317 4.84782 4.91666C3.32982 5.70014 2.14234 6.81416 1.28541 8.25871C0.428471 9.67878 0 11.3682 0 13.3269C0 15.4815 0.428471 17.2688 1.28541 18.6889C2.14234 20.1089 3.3543 21.1617 4.92127 21.8473ZM5.13052 11.5273C5.31596 10.5279 5.67317 9.65585 6.20668 9.14013C6.94119 8.40562 8.23884 8.03836 10.0996 8.03836C11.8135 8.03836 13.0499 8.34441 13.8089 8.95651C14.4855 9.50214 14.8606 10.3591 14.934 11.5273H5.13052Z" fill="#100A2C"></path><path fill-rule="evenodd" clip-rule="evenodd" d="M91.4964 22.8756C89.4152 22.8756 87.579 22.4839 85.9875 21.7004C84.4205 20.9169 83.1963 19.8151 82.3149 18.3951C81.4335 16.9505 80.9928 15.2611 80.9928 13.3269C80.9928 11.3682 81.4335 9.67878 82.3149 8.25871C83.1963 6.81416 84.4205 5.70014 85.9875 4.91666C87.579 4.13317 89.4152 3.74143 91.4964 3.74143C93.602 3.74143 95.4383 4.13317 97.0053 4.91666C98.5722 5.70014 99.7964 6.81416 100.678 8.25871C101.559 9.67878 102 11.3682 102 13.3269C102 15.2611 101.559 16.9505 100.678 18.3951C99.7964 19.8151 98.5722 20.9169 97.0053 21.7004C95.4383 22.4839 93.602 22.8756 91.4964 22.8756ZM86.9566 11.0388L89.3989 8.59647C90.6047 7.39066 92.5597 7.39066 93.7655 8.59647L96.2078 11.0388C97.4136 12.2446 97.4136 14.1996 96.2078 15.4054L93.7655 17.8477C92.5597 19.0535 90.6047 19.0535 89.3989 17.8477L86.9566 15.4054C85.7508 14.1996 85.7508 12.2446 86.9566 11.0388Z" fill="#100A2C"></path><path d="M88.4013 14.1032C87.9118 13.6138 87.9118 12.8203 88.4013 12.3308L90.6167 10.1154C91.1062 9.62593 91.8997 9.62593 92.3891 10.1154L94.6046 12.3308C95.094 12.8203 95.094 13.6138 94.6046 14.1032L92.3891 16.3187C91.8997 16.8081 91.1062 16.8081 90.6167 16.3187L88.4013 14.1032Z" fill="#8BEA1E"></path></svg>